<mxfile host="app.diagrams.net" modified="2021-12-09T12:48:44.537Z" agent="5.0 (Macintosh; Intel Mac OS X 10_15_7) AppleWebKit/537.36 (KHTML, like Gecko) Chrome/96.0.4664.55 Safari/537.36" etag="cs11AA7y-D85yNjG3UoY" version="15.9.4" type="github">
  <diagram id="JxEf3JPDyey-a3RJ5tNq" name="Page-1">
    <mxGraphModel dx="1044" dy="544" grid="1" gridSize="10" guides="1" tooltips="1" connect="1" arrows="1" fold="1" page="1" pageScale="1" pageWidth="827" pageHeight="1169" math="0" shadow="0">
      <root>
        <mxCell id="0" />
        <mxCell id="1" parent="0" />
        <mxCell id="KSiBgezZNAapBPM4-Bpf-5" style="rounded=0;orthogonalLoop=1;jettySize=auto;html=1;entryX=0;entryY=0.5;entryDx=0;entryDy=0;fontFamily=Times New Roman;fontSize=18;dashed=1;endArrow=none;endFill=0;" edge="1" parent="1" target="KSiBgezZNAapBPM4-Bpf-3">
          <mxGeometry relative="1" as="geometry">
            <mxPoint x="360" y="84" as="sourcePoint" />
          </mxGeometry>
        </mxCell>
        <mxCell id="KSiBgezZNAapBPM4-Bpf-2" value="&lt;font style=&quot;font-size: 18px&quot;&gt;E-CARGO&lt;/font&gt;" style="ellipse;whiteSpace=wrap;html=1;fontFamily=Times New Roman;" vertex="1" parent="1">
          <mxGeometry x="320" y="124" width="188" height="76" as="geometry" />
        </mxCell>
        <mxCell id="KSiBgezZNAapBPM4-Bpf-3" value="&lt;font style=&quot;font-size: 18px&quot;&gt;Role-Based Collaboration&lt;/font&gt;" style="ellipse;whiteSpace=wrap;html=1;fontFamily=Times New Roman;" vertex="1" parent="1">
          <mxGeometry x="258" y="237" width="312" height="60" as="geometry" />
        </mxCell>
        <mxCell id="KSiBgezZNAapBPM4-Bpf-7" style="rounded=0;orthogonalLoop=1;jettySize=auto;html=1;entryX=0;entryY=0.5;entryDx=0;entryDy=0;fontFamily=Times New Roman;fontSize=18;dashed=1;endArrow=none;endFill=0;" edge="1" parent="1">
          <mxGeometry relative="1" as="geometry">
            <mxPoint x="470" y="84" as="sourcePoint" />
            <mxPoint x="570" y="267" as="targetPoint" />
          </mxGeometry>
        </mxCell>
      </root>
    </mxGraphModel>
  </diagram>
</mxfile>
